<?xml version="1.0" encoding="utf-8"?><svg xmlns="http://www.w3.org/2000/svg" viewBox="0 0 300 300"><path d="M150 174.09H17.38c-5.85 0-7.41-1.63-7.41-7.56Q10 92 10 17.44c0-5.85 1.55-7.44 7.5-7.44h265c6 0 7.54 1.6 7.54 7.68q0 74.29 0 148.58c0 6.26-1.48 7.83-7.65 7.83zm-.18-9.54h82.38c4.28 0 4.88-.76 4.94-4.92.12-8.66 0-17.35.68-26 .87-11.4 2.69-22.65 9.09-32.59.41-.64-.12-2.2-.67-3s-1.54-1-2.38-1.44a88.19 88.19 0 0 1-22.93-16.4 90.33 90.33 0 0 1-21.46-32.59 79.7 79.7 0 0 1-5.58-24.22c-.18-3.09-1.07-3.85-4.22-3.85h-79.55c-2.91 0-3.8.74-4 3.49a89.34 89.34 0 0 1-12.34 38.3 87.34 87.34 0 0 1-24.7 27.25c-4.65 3.33-9.76 6-14.69 8.94-1.83 1.08-2.34 2.25-1 4.16 3.28 4.81 5.06 10.28 6.39 15.88 3.23 13.65 3.14 27.57 3.1 41.48 0 4.92.46 5.51 5.35 5.51zm130.8-29.28h-.05v-25.22c0-2.12-.77-3.42-2.95-3.8l-17.44-3.18c-2.11-.38-3.52.42-4.71 2.25a44.9 44.9 0 0 0-7 20.25c-1.16 11.68-1.46 23.44-2 35.18-.12 2.57 1.16 3.78 3.79 3.8h26.51c2.79 0 3.84-1.29 3.83-4q0-12.67.01-25.28zm-261.13 0h-.13q0 12.6 0 25.2c0 2.73 1.06 4 3.87 4q13.24.1 26.5 0c2.74 0 3.89-1.31 3.79-4.06l-1-25.7c-.6-10.08-2.24-19.93-7.66-28.75-1.89-3.1-2.69-3.38-6.31-2.67-5.12 1-10.26 1.91-15.41 2.77-2.92.48-3.6 1.16-3.6 4.23q-.06 12.55-.06 25.03zm-.13-96.6h.09v14.92c-.06 3.17 1 4.45 4.15 3.62a59.25 59.25 0 0 0 11.08-4 40.89 40.89 0 0 0 19-19.23 61.91 61.91 0 0 0 3.7-10.9c.54-1.94-.2-3.65-2.7-3.65l-31.65.08c-2.61 0-3.63 1.32-3.63 4l-.05 15.21zm261.19.37h0V24.89c.14-4.41-.65-5.41-5-5.41h-27.54c-5.56 0-6.32.91-4.93 6.3.11.41.21.83.35 1.23 3.35 9.88 9 18.07 17.78 23.86a42.55 42.55 0 0 0 15.07 6.37c3.32.66 4.37-.49 4.29-3.81-.11-4.74-.03-9.54-.03-14.34zM19.31 91.8c0 4 1 4.9 4.93 4.47A79 79 0 0 0 62 81.87c17.34-12.35 28.24-29.09 33.08-49.78a61.91 61.91 0 0 0 1.26-8.9c.23-2.62-.82-3.59-3.41-3.7-5-.21-6 .62-6.61 5.6a68.37 68.37 0 0 1-17.75 38C56.63 76.33 41.83 84.28 24.06 86.51c-3.91.49-4.76 1.54-4.75 5.29zm261.34.1c0-3.88-.79-4.9-4.91-5.4A68.64 68.64 0 0 1 242.29 73c-15.95-12-25.69-27.73-28.61-47.57a25.63 25.63 0 0 0-.47-3c-.71-2.58-3.15-3.54-7.11-2.87-2.57.44-2.65 2.35-2.48 4.32a75.69 75.69 0 0 0 6.29 23.76 79.09 79.09 0 0 0 14.69 22.44c13.92 15 31 23.8 51.28 26.2 3.8.44 4.75-.52 4.77-4.38zm-52.81-72.38c-4.59 0-5.78 1.06-5 4.52 1.61 6.66 3.23 13.27 6.49 19.42a64.62 64.62 0 0 0 22.27 24.35c7.32 4.76 15.42 7.33 23.85 9.12 3.1.66 4.57 0 5-2.3.88-4.42-.14-6.72-3.39-7.29a54.12 54.12 0 0 1-19.38-7.17c-13.68-8.45-21.87-20.65-24.94-36.35-.65-3.74-1.13-4.31-4.9-4.3zm-155.33 0c-4 0-4.71.39-5.21 3.41A53 53 0 0 1 56.94 47a53 53 0 0 1-32.55 20.06c-4.57.92-5.13 1.36-5.05 6 .05 3.56 1.39 4.61 4.87 3.92C34.43 75 44 71.42 52.36 65A65 65 0 0 0 70.6 43.37c3-5.77 4.63-11.95 6.2-18.18 1.12-4.42.3-5.62-4.29-5.67zM150 290H17.34c-5.74 0-7.38-1.66-7.37-7.36v-14.68c0-5.1 2-7 7-7l9 .09c2.27 0 3.3-1.1 3.28-3.32l-.06-10c-.19-9.39 3.88-16.51 11.59-21.62a30.21 30.21 0 0 1 4.64-2.17c2.51-1.08 3.5-2.77 3.35-5.66a80.41 80.41 0 0 1 .23-13.66 23.54 23.54 0 0 1 31.66-19.22 36 36 0 0 1 8.85 5.48c2 1.53 3.25 1.6 5.06-.09 10.12-9.42 23.45-9.41 33.55-.06 2.23 2.06 2.89 2.05 5.17-.08 9.88-9.22 23.51-9.21 33.39 0 2.28 2.12 2.94 2.13 5.17.06 10.09-9.34 23.43-9.35 33.55.08 1.83 1.69 3.19 1.73 5 0 11.17-10.35 26.39-9.27 36 2.55a22 22 0 0 1 4.86 13.57c.1 3.77.08 7.55 0 11.32-.11 3.24.45 4.59 3.57 5.72 5.22 1.9 9.48 5.05 12.08 9.88a32.27 32.27 0 0 1 3.62 10.28c.63 4.2.23 8.56.19 12.85 0 3.23.63 4 3.8 4.05s6.18-.12 9.27-.06c4.14.07 6.16 2.07 6.23 6.22q.12 8.37 0 16.74c-.05 4-1.78 5.76-5.82 6-1.71.1-3.43 0-5.15 0H150zm.23-19.22h0H28.44a36.23 36.23 0 0 0-5.9.11 4.23 4.23 0 0 0-2.92 1.95c-1.84 4.63.28 7.59 5.16 7.59h248.16a20.42 20.42 0 0 0 4.36-.11 4.57 4.57 0 0 0 2.86-1.75c2.26-4.13 0-7.81-4.59-7.81zm-62.8-57.3h-.14c0-2 .08-3.95 0-5.91a14.54 14.54 0 0 0-29.06.15c-.12 3.51 0 7-.14 10.54-.12 3.25.6 4.23 3.5 5.81a85.59 85.59 0 0 1 8.74 5.64c1.5 1.08 3 1.76 4.36.34a26.35 26.35 0 0 1 10-6.47c2.15-.85 3-2.56 2.75-5a44 44 0 0 1-.04-5.11zm38.62.14h-.13c0-2.06.09-4.12 0-6.17a14.54 14.54 0 0 0-29.06.64c-.08 3.43.12 6.87-.17 10.28-.25 2.9 1.07 4.34 3.42 5.64a100.35 100.35 0 0 1 9 5.78c1.52 1.08 3 1.62 4.36.18a24.39 24.39 0 0 1 9.6-6.21 4.44 4.44 0 0 0 3.09-5.26 36.09 36.09 0 0 1-.16-4.89zm9-.45l.31.06a39.88 39.88 0 0 1 0 5.13c-.39 2.89 1.05 4.35 3.39 5.65a98.17 98.17 0 0 1 8.95 5.78c1.53 1.07 3.05 1.63 4.37.19 2.74-3 6.17-4.75 9.79-6.42a5.46 5.46 0 0 0 2.81-3.78 99.68 99.68 0 0 0-.12-12.58c-.37-6.64-5.84-12.62-12.12-13.48-7.34-1-13.68 2.65-15.86 9.64-1.05 3.11-1.09 6.52-1.57 9.8zm68.26.39h-.13c0-2.06.09-4.12 0-6.18a14.53 14.53 0 0 0-29 .52c-.1 3.43 0 6.86-.13 10.28s.61 4.35 3.66 6a71.58 71.58 0 0 1 8.52 5.51c1.59 1.16 3.13 1.81 4.55.27a24.44 24.44 0 0 1 9.62-6.2 4.45 4.45 0 0 0 3-5.3 34.38 34.38 0 0 1-.12-4.91zm38.65-.07h-.14c0-2 .07-3.95 0-5.91a14.53 14.53 0 0 0-29.05.13c-.13 3.51.12 7-.18 10.53-.24 2.86.92 4.4 3.3 5.72 3.17 1.77 6.17 3.85 9.16 5.92 1.45 1 2.95 1.51 4.17.17a26.16 26.16 0 0 1 10-6.47c2.15-.85 3-2.55 2.76-5a43.87 43.87 0 0 1-.05-5.1zm-188.7 47.56h11.06c2.87 0 3.59-.81 3.6-3.73 0-3.17.06-6.35-.07-9.51a20.74 20.74 0 0 0-.82-6.07c-2.44-6.77-9.24-10.48-16.45-9.33-5.32.85-11.79 6.8-11.6 13.86.11 3.76 0 7.53-.11 11.3 0 2.33.93 3.52 3.34 3.5 3.69-.07 7.37-.02 11.05-.02zm38.64 0h11c2.87 0 3.59-.81 3.6-3.73 0-3.17.06-6.35-.07-9.51a20.74 20.74 0 0 0-.82-6.07c-2.44-6.77-9.24-10.48-16.45-9.33-5.31.85-11.79 6.8-11.6 13.86.11 3.76 0 7.53-.11 11.3 0 2.33.93 3.52 3.34 3.5 3.74-.07 7.42-.02 11.11-.02zm38.63 0h11.05c2.87 0 3.6-.81 3.6-3.73 0-3.17.07-6.35-.07-9.51a20.74 20.74 0 0 0-.81-6.07c-2.45-6.77-9.24-10.48-16.45-9.33-5.32.85-11.8 6.8-11.6 13.86.1 3.76 0 7.53-.12 11.3 0 2.33.93 3.52 3.35 3.5 3.68-.07 7.36-.02 11.05-.02zm38.6 0h11.31c2.4 0 3.42-1.13 3.39-3.47l-.11-10.53a17.36 17.36 0 0 0-.87-5.54 14.58 14.58 0 0 0-16.59-9.07c-5.16.92-11.63 6.7-11.39 14 .11 3.68-.07 7.37-.09 11 0 2.67.77 3.48 3.55 3.51 3.6.13 7.2.1 10.8.1zm38.78 0h11.05c2.73 0 3.47-.82 3.48-3.59 0-3 .08-6-.06-9a23 23 0 0 0-.88-6.82c-2.51-6.81-9.3-10.43-16.5-9.21-5.23.89-11.71 6.75-11.5 14 .12 3.77 0 7.54-.11 11.31 0 2.39 1.11 3.41 3.46 3.38 3.69-.12 7.37-.07 11.06-.07zm38.45 0h11.31c2.39 0 3.46-1.09 3.42-3.44l-.12-10.79a16.42 16.42 0 0 0-.84-5.29 14.64 14.64 0 0 0-16.58-9.1c-5.18.91-11.64 6.72-11.42 14 .12 3.76 0 7.53-.1 11.3 0 2.23 1 3.31 3.28 3.29l11.05.03z"/></svg>