<?xml version="1.0" encoding="utf-8"?><svg xmlns="http://www.w3.org/2000/svg" viewBox="0 0 300 300"><path d="M43.36 149.9V44.59c-.05-10.69 4-19.06 12.58-25.25a20 20 0 0 1 6.85-3.51C68.55 14.5 74.33 13 80.43 13l143.09.26c11.33.11 22.12 3.67 28.68 14.43a26.66 26.66 0 0 1 4.37 13.61l.05 6.73q0 84 .07 167.93a13.63 13.63 0 0 1-4.22 10.37Q224.68 254 197 281.73a17.44 17.44 0 0 1-12.72 5.15c-36.23 0-72.46.35-108.68-.18-11.44-.17-21.92-4.42-28.29-15.14a30.06 30.06 0 0 1-4-15.83q.13-52.92.05-105.83zm19.13 0q0 52.67 0 105.32a12.34 12.34 0 0 0 .82 4.76c1.94 4.52 5.47 6.49 10.44 6.48q50.71-.08 101.43 0c3 0 3.79-.76 3.79-3.86 0-7.33-.22-14.67 0-22a47.55 47.55 0 0 1 1.78-12.43c3.19-10.14 10.26-16.77 20.65-18.92 5.67-1.17 11.65-.93 17.5-1.11 5-.16 10 .1 15 0 2.84-.07 3.61-1.09 3.59-3.92 0-1.56-.08-3.11-.08-4.66q0-77.51 0-155c0-6.71-4.23-11.05-10.92-11.06q-76.59 0-153.18 0c-6.71 0-10.9 4.33-10.9 11.08zm136.16 92.82h-.14c0 1.89-.09 3.79.05 5.68.05.75.45 1.86 1 2.1a2.67 2.67 0 0 0 2.19-.76q9.45-9.36 18.75-18.86a8.78 8.78 0 0 0 1.19-2.37 9.27 9.27 0 0 0-2.73-.95c-3.45-.09-6.89 0-10.33.06-5.89.13-9.82 4.06-10 9.93-.02 1.75.02 3.45.02 5.19zm-29.37-54.52a10.51 10.51 0 0 1-8.45 10.34c-4.16.66-9.05-2.94-10.78-7.62-2.31-6.21-4.85-12.33-7.24-18.51-.92-2.37-2.56-3.1-5.05-3.06-7.67.12-15.35.09-23 0-4.27 0-5.12.48-6.67 4.46l-7.55 18.94c-1.88 4.55-7.42 7.22-11.68 5.78-5.23-1.77-8-6.53-6.5-11.88a105.39 105.39 0 0 1 3.55-10q6.35-16.5 12.79-33l11.79-29.75q3-7.7 5.86-15.45c1.43-3.85 5.52-7 9.42-7a9.85 9.85 0 0 1 9.06 6.58l13.12 33.94 14.28 36.25 6.5 17.41a15.44 15.44 0 0 1 .55 2.57zM125.75 150h0c1.8 0 3.62.11 5.41 0 2.13-.17 2.66-1.2 1.87-3.17l-1.34-3.34-4.44-11.26a2.81 2.81 0 0 0-1.6-1.45c-.35-.1-1.23.62-1.43 1.14q-2.94 7.42-5.7 14.91c-.77 2.09.25 3.14 2.32 3.23l4.91-.06zm46.4-38.88c-3.6.38-7-.31-9.75-3.21-4.47-4.66-3.05-12.82 3-15a25.93 25.93 0 0 1 8.6-1.06c4.07 0 4.89-.78 5-4.91.12-3 .18-6.28 1.3-9a9 9 0 0 1 10.7-5.38c4 .91 7.54 5.27 7.68 9.65.06 1.81 0 3.62 0 5.43 0 3.3 1.13 4.25 4.41 4.22a31.07 31.07 0 0 1 7.42.42c5.24 1.25 7.94 5.43 7.28 10.59a9.81 9.81 0 0 1-9.51 8.27c-1.89.07-3.79 0-5.68 0-3.06 0-3.88.78-3.91 3.77v4.92c0 6-4.5 10.81-10 10.72s-9.69-4.86-9.69-10.7v-4.65c0-3.37-.73-4.1-4.1-4.08z"/></svg>