<?xml version="1.0" encoding="utf-8"?><svg xmlns="http://www.w3.org/2000/svg" viewBox="0 0 1000 1000"><path d="M0 0h1000v1000H0z"/><path d="M1000 324.86V221.61l-154.33-86-86 7.56L1000 324.86zM231.67 201.94L69.44 219.61 227 408.28l123-7.89 9.14 153.93-55.58 5.68 232.61 286.78 256.94-38.72-561.44-606.12zM15 610.28l-15 .08V927l207.63-31.24L15 610.28zm626-453.34l-175.56 17.78 224.23 186.67 94.59-7.01 5.66 123.06L1000 680.76V459.61L641 156.94zM64.56 531.83l-.22 78H38.41l188.84 283.31L515 850.06 281.28 562.28s-35.7 4.3-47.68 4.39c-4.73 0-11.21-2.94-14-6.7L0 262.78v174.85zm714.84-40.07s-49.23 5.52-75.56 9.8c-15.51 2.52-26.2-.32-37.68-11.95l-301.49-303-110.34 13 560.11 604.88L1000 777.13v-70.66z" fill="#fff"/></svg>