<?xml version="1.0" encoding="utf-8"?><svg xmlns="http://www.w3.org/2000/svg" viewBox="0 0 1000 500"><path d="M0 0h1000v500H0z" fill="#fff"/><path d="M508.38 167.72l-10.51 34.58-10.32-34.58h-9.59l-10.29 34.47-10.54-34.47h-12.17l17.71 55.06h9.59l10.46-34.81 10.45 34.81h9.59l17.71-55.06h-12.09zm30.96 55.92a21.42 21.42 0 0 1-10.56-2.64 19.59 19.59 0 0 1-7.45-7.14 19.21 19.21 0 0 1-2.73-10.14 18.83 18.83 0 0 1 2.73-10.06 20 20 0 0 1 7.41-7.06 21.38 21.38 0 0 1 10.6-2.61 21.69 21.69 0 0 1 10.66 2.6 19.57 19.57 0 0 1 7.41 7.06 20.12 20.12 0 0 1 0 20.24A19.7 19.7 0 0 1 550 221a21.39 21.39 0 0 1-10.66 2.64zm0-10.84a8.91 8.91 0 0 0 4.53-1.13 7.55 7.55 0 0 0 3-3.2 10.28 10.28 0 0 0 1-4.72 9.47 9.47 0 0 0-1.09-4.64 8.18 8.18 0 0 0-3-3.12 9.39 9.39 0 0 0-8.93 0 7.9 7.9 0 0 0-3 3.16 10.42 10.42 0 0 0 0 9.32 7.76 7.76 0 0 0 3 3.2 8.73 8.73 0 0 0 4.49 1.13zm44.93 10.84A21.48 21.48 0 0 1 573.7 221a19.66 19.66 0 0 1-7.45-7.14 19.21 19.21 0 0 1-2.73-10.14 18.83 18.83 0 0 1 2.73-10.06 20 20 0 0 1 7.41-7.06 21.42 21.42 0 0 1 10.61-2.6 21.72 21.72 0 0 1 10.61 2.57 19.57 19.57 0 0 1 7.41 7.06 20.12 20.12 0 0 1 0 20.24 19.7 19.7 0 0 1-7.41 7.14 21.42 21.42 0 0 1-10.61 2.63zm0-10.84a8.91 8.91 0 0 0 4.53-1.13 7.55 7.55 0 0 0 3-3.2 10.28 10.28 0 0 0 1.05-4.72 9.47 9.47 0 0 0-1.09-4.64 8.18 8.18 0 0 0-3-3.12 9.39 9.39 0 0 0-8.93 0 8 8 0 0 0-3.05 3.16 10.51 10.51 0 0 0 0 9.32 7.85 7.85 0 0 0 3.05 3.2 8.73 8.73 0 0 0 4.44 1.13zM637 166.16v21.16a15.07 15.07 0 0 0-2.85-1.74 16.37 16.37 0 0 0-7.06-1.48 17.76 17.76 0 0 0-9.55 2.57 18.15 18.15 0 0 0-6.55 7A22.79 22.79 0 0 0 611 214a18.15 18.15 0 0 0 6.55 7 17.76 17.76 0 0 0 9.55 2.57 15.6 15.6 0 0 0 7.1-1.6 15.05 15.05 0 0 0 3-2v2.81h11.7v-56.62zm-3.35 45.51a8.51 8.51 0 0 1-4.45 1.13 8.34 8.34 0 0 1-4.37-1.17 8.14 8.14 0 0 1-3-3.2 9.5 9.5 0 0 1-1.09-4.6 9.2 9.2 0 0 1 1.13-4.6 8.58 8.58 0 0 1 3-3.2 8.88 8.88 0 0 1 8.81 0 8 8 0 0 1 3 3.16 10.68 10.68 0 0 1 0 9.32 8.13 8.13 0 0 1-3.03 3.16zm82.17-20.51a13.66 13.66 0 0 0-5.38-5.23 16.13 16.13 0 0 0-7.77-1.83 16.5 16.5 0 0 0-8 1.91 14.68 14.68 0 0 0-4.1 3.27 13.35 13.35 0 0 0-3.93-3.39 14.18 14.18 0 0 0-7.14-1.79 16.09 16.09 0 0 0-7.57 1.75 13.46 13.46 0 0 0-2.65 1.84v-2.81h-11.92v37.9h11.93v-22.15a6.06 6.06 0 0 1 .82-3.27 5.6 5.6 0 0 1 2.22-2.07 6.68 6.68 0 0 1 3.2-.74 6.17 6.17 0 0 1 4.33 1.6 5.74 5.74 0 0 1 1.75 4.48v22.15h11.94v-22.15a6.06 6.06 0 0 1 .82-3.27 5.54 5.54 0 0 1 2.22-2.07 6.68 6.68 0 0 1 3.2-.74 6.19 6.19 0 0 1 4.33 1.6 5.74 5.74 0 0 1 1.75 4.48v22.15h11.94v-23.47a15.88 15.88 0 0 0-1.99-8.15zm27.88 32.48a21.48 21.48 0 0 1-10.57-2.64 19.66 19.66 0 0 1-7.45-7.14 19.21 19.21 0 0 1-2.68-10.11 18.83 18.83 0 0 1 2.73-10.06 20 20 0 0 1 7.41-7.06A21.42 21.42 0 0 1 743.7 184a21.72 21.72 0 0 1 10.61 2.57 19.57 19.57 0 0 1 7.41 7.06 20.12 20.12 0 0 1 0 20.24 19.7 19.7 0 0 1-7.41 7.14 21.42 21.42 0 0 1-10.61 2.63zm0-10.84a8.93 8.93 0 0 0 4.53-1.13 7.61 7.61 0 0 0 3-3.2 10.28 10.28 0 0 0 1-4.72 9.47 9.47 0 0 0-1.09-4.64 8.18 8.18 0 0 0-3-3.12 9.41 9.41 0 0 0-8.94 0 8 8 0 0 0-3 3.16 10.51 10.51 0 0 0 0 9.32 7.82 7.82 0 0 0 3 3.2 8.76 8.76 0 0 0 4.5 1.13zm61.78-21.45a14.66 14.66 0 0 0-5.11-5.27 14 14 0 0 0-7.45-2 16.55 16.55 0 0 0-7.84 1.83 13.39 13.39 0 0 0-2.77 1.95v-3h-11.93v37.9h11.93v-21.6a7 7 0 0 1 .86-3.47 5.85 5.85 0 0 1 2.34-2.34 6.93 6.93 0 0 1 3.43-.82 6.29 6.29 0 0 1 4.64 1.83 6.49 6.49 0 0 1 1.83 4.8v21.6h11.94v-24.23a14.3 14.3 0 0 0-1.87-7.18zm34.94-6.47h-8.58V169.2h-11.93v15.68h-8.58v10.14h8.58v27.76h11.93v-27.76h8.58v-10.14zm-352.36 80.99a16.31 16.31 0 0 0-6.67-6.05 20.86 20.86 0 0 0-9.44-2.1h-23v55.06h12.25v-20H472a20.5 20.5 0 0 0 9.44-2.15 16.52 16.52 0 0 0 6.67-6.08 18.88 18.88 0 0 0 0-18.64zm-10.8 13.69a7.24 7.24 0 0 1-3 2.73 9.14 9.14 0 0 1-4.13.93h-9v-16h9a9 9 0 0 1 4.13.94 7.11 7.11 0 0 1 3 2.73 8.14 8.14 0 0 1 1.09 4.29 8.36 8.36 0 0 1-1.09 4.38zm25.58-23.01a6.21 6.21 0 0 0-4.64 1.87 6.85 6.85 0 0 0 0 9.32 6.17 6.17 0 0 0 4.64 1.91 6 6 0 0 0 4.6-1.91 6.93 6.93 0 0 0 0-9.32 6.09 6.09 0 0 0-4.6-1.87zm-6.01 18.33h11.93v37.91h-11.93zm46.65 3.12a13.79 13.79 0 0 0-3.55-2.46 15.74 15.74 0 0 0-6.93-1.44 17.11 17.11 0 0 0-9.32 2.57 18.41 18.41 0 0 0-6.47 7 22.79 22.79 0 0 0 0 20.28 18.41 18.41 0 0 0 6.47 7 17.11 17.11 0 0 0 9.32 2.57 16 16 0 0 0 7-1.48 13.71 13.71 0 0 0 3.51-2.4v3.1h11.7v-37.9h-11.7zm-8 24.76a8.34 8.34 0 0 1-4.37-1.17 8.14 8.14 0 0 1-3-3.2 10.25 10.25 0 0 1 0-9.28 8.32 8.32 0 0 1 3-3.16 9.17 9.17 0 0 1 8.82 0 7.78 7.78 0 0 1 3 3.16 10 10 0 0 1 1.05 4.68 9.09 9.09 0 0 1-2.34 6.43 8 8 0 0 1-6.2 2.58zm58.11-26.68a14 14 0 0 0-7.45-2 16.55 16.55 0 0 0-7.84 1.83 13.39 13.39 0 0 0-2.77 1.95v-3H563.6v37.9h11.93v-21.6a7 7 0 0 1 .86-3.47 5.85 5.85 0 0 1 2.34-2.34 6.93 6.93 0 0 1 3.43-.82 6.29 6.29 0 0 1 4.64 1.83 6.46 6.46 0 0 1 1.84 4.8v21.6h11.93v-24.23a14.19 14.19 0 0 0-1.87-7.18 14.66 14.66 0 0 0-5.11-5.27zm43.48.51a21.68 21.68 0 0 0-10.6-2.57 21.39 21.39 0 0 0-10.61 2.61 20 20 0 0 0-7.41 7.06 18.83 18.83 0 0 0-2.73 10.06 19.21 19.21 0 0 0 2.73 10.14 19.59 19.59 0 0 0 7.45 7.11 22.77 22.77 0 0 0 21.17 0 19.8 19.8 0 0 0 7.42-7.14 20.19 20.19 0 0 0 0-20.24 19.67 19.67 0 0 0-7.42-7.03zM634 298.47a7.55 7.55 0 0 1-3 3.2 8.89 8.89 0 0 1-4.52 1.13 8.74 8.74 0 0 1-4.45-1.13 7.82 7.82 0 0 1-3-3.2 10.51 10.51 0 0 1 0-9.32 8 8 0 0 1 3-3.16 9.39 9.39 0 0 1 8.93 0 8 8 0 0 1 3 3.12 9.47 9.47 0 0 1 1.1 4.64 10.16 10.16 0 0 1-1.06 4.72zm67.62-13.73a23 23 0 0 0-5-3.16 57.63 57.63 0 0 0-5.5-2.18l-5.07-1.87a12.38 12.38 0 0 1-3.71-2.23 4.37 4.37 0 0 1-1.4-3.39 3.88 3.88 0 0 1 1.87-3.47 9.32 9.32 0 0 1 5.07-1.21 12.83 12.83 0 0 1 5.73 1.25 18.56 18.56 0 0 1 5 3.82l8-7.88a21.66 21.66 0 0 0-7.92-5.53 26.7 26.7 0 0 0-10.57-2 25 25 0 0 0-10.12 1.88 16.23 16.23 0 0 0-7.87 21.29 13.76 13.76 0 0 0 3.7 4.61 23.08 23.08 0 0 0 5 3l5.5 2.14 5.07 1.95a12 12 0 0 1 3.7 2.42 5 5 0 0 1 1.41 3.67 4.43 4.43 0 0 1-2.15 3.9 11 11 0 0 1-6 1.4 16.13 16.13 0 0 1-7.53-1.68 19.91 19.91 0 0 1-5.89-4.72l-8 7.88a27 27 0 0 0 8.93 6.75 28 28 0 0 0 11.66 2.22q9.9 0 15.52-4.48 5.62-4.48 5.62-12.37a16.52 16.52 0 0 0-1.41-7.21 14.16 14.16 0 0 0-3.64-4.8zm29.13-25.54h-11.93v15.68h-8.58v10.14h8.58v27.76h11.93v-27.76h8.58v-10.14h-8.58V259.2zm36.43 37.52a6.61 6.61 0 0 1-1.56 4.64 5.49 5.49 0 0 1-4.22 1.64 6.16 6.16 0 0 1-3.19-.78 4.83 4.83 0 0 1-2-2.18 7.67 7.67 0 0 1-.67-3.35v-21.81h-11.92v22a16.59 16.59 0 0 0 2.26 8.7 15.88 15.88 0 0 0 6.28 5.93 19.33 19.33 0 0 0 9.24 2.14 19.09 19.09 0 0 0 9.21-2.14 16 16 0 0 0 6.24-5.93 16.76 16.76 0 0 0 2.26-8.78v-21.92h-11.93zm45.47-19.4a15.07 15.07 0 0 0-2.85-1.74 16.41 16.41 0 0 0-7.06-1.48 17.76 17.76 0 0 0-9.55 2.57 18.08 18.08 0 0 0-6.55 7 22.79 22.79 0 0 0 0 20.28 18.08 18.08 0 0 0 6.55 7 17.76 17.76 0 0 0 9.55 2.57 15.6 15.6 0 0 0 7.1-1.6 15.34 15.34 0 0 0 3-2v2.81h11.7v-56.57h-11.89zm-3.36 24.35a8.44 8.44 0 0 1-4.44 1.13 8.34 8.34 0 0 1-4.37-1.17 8.14 8.14 0 0 1-3-3.2 9.5 9.5 0 0 1-1.09-4.6 9.2 9.2 0 0 1 1.13-4.6 8.5 8.5 0 0 1 3-3.2 8.88 8.88 0 0 1 8.81 0 8 8 0 0 1 3 3.16 10.68 10.68 0 0 1 0 9.32 8.08 8.08 0 0 1-3.04 3.16zM833 274.88h11.93v37.91H833zm6-18.33a6.21 6.21 0 0 0-4.64 1.87 6.85 6.85 0 0 0 0 9.32 6.17 6.17 0 0 0 4.64 1.91 6 6 0 0 0 4.6-1.91 6.93 6.93 0 0 0 0-9.32 6.07 6.07 0 0 0-4.6-1.87zm50.63 27.1a19.57 19.57 0 0 0-7.41-7.06 21.69 21.69 0 0 0-10.61-2.59 21.38 21.38 0 0 0-10.6 2.61 20 20 0 0 0-7.41 7.06 18.83 18.83 0 0 0-2.73 10.06 19.21 19.21 0 0 0 2.73 10.14A19.63 19.63 0 0 0 861 311a22.79 22.79 0 0 0 21.18 0 19.7 19.7 0 0 0 7.41-7.14 20.12 20.12 0 0 0 0-20.24zm-10.49 14.82a7.55 7.55 0 0 1-3 3.2 8.91 8.91 0 0 1-4.53 1.13 8.73 8.73 0 0 1-4.44-1.13 7.76 7.76 0 0 1-3-3.2 10.42 10.42 0 0 1 0-9.32 7.9 7.9 0 0 1 3-3.16 9.39 9.39 0 0 1 8.93 0 8.18 8.18 0 0 1 3 3.12 9.47 9.47 0 0 1 1.09 4.64 10.28 10.28 0 0 1-1.05 4.72zM107.64 99.33h301.33v301.33H107.64z"/><path d="M408.97 197.22v-31.11l-46.5-25.91-25.92 2.27 72.42 54.75zm-231.52-37.03l-48.89 5.32 47.48 56.85 37.06-2.38 2.76 46.39-16.75 1.71 70.09 86.42 77.43-11.67-169.18-182.64zm-65.29 123.04l-4.52.02v95.42l62.56-9.41-58.04-86.03zm188.63-136.6l-52.9 5.35 67.57 56.25 28.5-2.11 1.71 37.08 63.3 61.27v-66.64l-108.18-91.2zm-173.7 112.96l-.09 23.52h-7.82l56.91 85.36 86.7-13-70.39-86.7s-10.76 1.29-14.37 1.32a5.93 5.93 0 0 1-4.22-2l-66.17-89.55v52.69zm215.41-12.07s-14.84 1.66-22.77 2.95c-4.67.76-7.9-.1-11.36-3.6l-90.85-91.3-33.24 3.91 168.78 182.27 55.94-8.24v-21.29z" fill="#fff"/></svg>