<?xml version="1.0" standalone="no"?>
<!DOCTYPE svg PUBLIC "-//W3C//DTD SVG 20010904//EN"
 "http://www.w3.org/TR/2001/REC-SVG-20010904/DTD/svg10.dtd">
<svg version="1.0" xmlns="http://www.w3.org/2000/svg"
 width="700.000000pt" height="700.000000pt" viewBox="0 0 700.000000 700.000000"
 preserveAspectRatio="xMidYMid meet">
<metadata>
Created by potrace 1.14, written by Peter Selinger 2001-2017
</metadata>
<g transform="translate(0.000000,700.000000) scale(0.100000,-0.100000)"
fill="#000000" stroke="none">
<path d="M0 6080 l0 -920 775 -1049 c706 -955 779 -1051 816 -1065 37 -15 54
-15 209 0 l169 17 24 -29 c13 -16 381 -468 816 -1004 780 -961 792 -975 764
-983 -25 -7 -1954 -297 -1975 -297 -4 0 -305 445 -668 990 l-660 990 90 0 90
0 0 275 0 275 -207 303 c-113 166 -215 313 -225 326 -17 23 -18 6 -18 -578 l0
-601 53 0 52 0 673 -998 c558 -828 669 -998 655 -1004 -10 -3 -326 -52 -703
-108 -377 -56 -695 -104 -707 -107 l-23 -5 0 -254 0 -254 3500 0 3500 0 0 781
0 781 -27 -6 c-16 -3 -307 -46 -647 -96 l-619 -91 -58 58 c-185 188 -3859
4167 -3852 4173 4 4 177 26 383 50 l375 43 1075 -1081 c726 -729 1088 -1087
1115 -1100 65 -32 104 -33 256 -12 79 11 214 29 299 39 l155 20 115 -113 c63
-62 372 -362 685 -666 314 -304 609 -592 658 -639 l87 -86 0 90 0 90 -655 635
c-361 349 -692 669 -736 710 l-80 75 -19 429 c-11 236 -22 431 -23 432 -2 2
-150 -8 -330 -22 l-328 -24 -784 652 c-432 359 -781 654 -777 655 4 1 280 30
614 63 l607 61 318 -268 c885 -748 2169 -1830 2181 -1836 9 -7 12 88 12 461
l0 468 -839 635 c-462 348 -839 635 -838 636 1 1 136 13 300 28 l297 26 498
-277 c273 -152 516 -288 540 -301 l42 -25 0 776 0 776 -3500 0 -3500 0 0 -920z
m3620 -2650 c1061 -1147 1927 -2086 1923 -2087 -12 -4 -1722 -261 -1760 -265
-31 -3 -50 19 -842 996 -446 550 -809 1001 -807 1003 1 2 85 12 186 23 100 10
185 22 188 25 5 4 -40 824 -55 1002 l-6 73 -51 -6 c-28 -3 -220 -16 -426 -29
-352 -22 -376 -23 -392 -7 -42 42 -1085 1298 -1081 1302 2 2 255 32 561 66
l557 61 37 -36 c20 -20 906 -974 1968 -2121z"/>
</g>
</svg>
